# xmcd
#
# Track frame offsets:
# 150
# 16967
# 31932
#
# Disc length: 707 seconds
#
#
# Revision: 0
# Processed by: cddbd v1.4PL0 Copyright (c) Steve Scherf et al.
# Submitted via: FreeRIP 2.00 
#
DISCID=1702c103
DTITLE=Dwight Yoakam - Bring Home the Holidays
DYEAR=2003
DGENRE=Country
TTITLE0=The Loco-Motion
TTITLE1=No Such Thing
TTITLE2=Population Me
EXTD=
EXTT0=
EXTT1=
EXTT2=
PLAYORDER=
